<?xml version="1.0" encoding="UTF-8" standalone="no"?>
<svg
   width="32px"
   height="32px"
   viewBox="-256 -256 512 512"
   version="1.1"
   xml:space="preserve"
   id="svg2"
   sodipodi:docname="logo.svg"
   inkscape:version="1.3 (0e150ed, 2023-07-21)"
   xmlns:inkscape="http://www.inkscape.org/namespaces/inkscape"
   xmlns:sodipodi="http://sodipodi.sourceforge.net/DTD/sodipodi-0.dtd"
   xmlns="http://www.w3.org/2000/svg"
   xmlns:svg="http://www.w3.org/2000/svg"><defs
   id="defs2"><inkscape:path-effect
     effect="fillet_chamfer"
     id="path-effect2"
     is_visible="true"
     lpeversion="1"
     nodesatellites_param="F,0,0,1,0,7.1322036,0,1 @ F,0,0,1,0,7.9322036,0,1 @ F,0,0,1,0,6.3186442,0,1 @ F,0,0,1,0,7.3898307,0,1"
     radius="0"
     unit="px"
     method="auto"
     mode="F"
     chamfer_steps="1"
     flexible="false"
     use_knot_distance="true"
     apply_no_radius="true"
     apply_with_radius="true"
     only_selected="false"
     hide_knots="false" /></defs><sodipodi:namedview
   id="namedview2"
   pagecolor="#ffffff"
   bordercolor="#666666"
   borderopacity="1.0"
   inkscape:showpageshadow="2"
   inkscape:pageopacity="0.0"
   inkscape:pagecheckerboard="0"
   inkscape:deskcolor="#d1d1d1"
   inkscape:zoom="7.375"
   inkscape:cx="16"
   inkscape:cy="6.2372881"
   inkscape:window-width="1440"
   inkscape:window-height="847"
   inkscape:window-x="0"
   inkscape:window-y="25"
   inkscape:window-maximized="0"
   inkscape:current-layer="svg2" />&#10;    &#10;    <ellipse
   cx="0"
   cy="0"
   stroke-width="16px"
   rx="75px"
   ry="196px"
   fill="none"
   stroke="white"
   transform="rotate(52.5)"
   id="ellipse1" />&#10;    <ellipse
   cx="0"
   cy="0"
   stroke-width="16px"
   rx="75px"
   ry="196px"
   fill="none"
   stroke="white"
   transform="rotate(-52.5)"
   id="ellipse2" />&#10;    <circle
   cx="0"
   cy="0"
   r="34"
   fill="white"
   id="circle2" />&#10;<path
   style="fill:#ffffff;fill-opacity:1;stroke:#cacaca;stroke-width:0.75;stroke-linejoin:round;stroke-miterlimit:40;stroke-dasharray:none;stroke-dashoffset:0;stroke-opacity:1"
   id="rect2"
   width="27.932205"
   height="27.796612"
   x="2.1694915"
   y="2.3050847"
   transform="matrix(16,0,0,16,-256,-256)"
   inkscape:path-effect="#path-effect2"
   sodipodi:type="rect"
   d="M 9.3016951,2.3050847 H 22.169493 a 7.9322036,7.9322036 45 0 1 7.932204,7.9322033 v 13.545764 a 6.3186442,6.3186442 135 0 1 -6.318644,6.318644 H 9.5593222 A 7.3898307,7.3898307 45 0 1 2.1694915,22.711866 V 9.4372883 A 7.1322036,7.1322036 135 0 1 9.3016951,2.3050847 Z" /><text
   xml:space="preserve"
   style="font-style:normal;font-weight:normal;font-size:40px;line-height:1.25;font-family:sans-serif;fill:#000000;fill-opacity:1;stroke:none"
   x="-8.6779661"
   y="-9.8983049"
   id="text2"
   transform="matrix(16,0,0,16,-256,-256)"><tspan
     sodipodi:role="line"
     id="tspan2"
     x="-8.6779661"
     y="-9.8983049" /></text><text
   xml:space="preserve"
   style="font-style:normal;font-weight:normal;font-size:40px;line-height:1.25;font-family:Chalkduster;fill:#000000;fill-opacity:1;stroke:none;-inkscape-font-specification:'Chalkduster, Normal';font-stretch:normal;font-variant:normal;font-variant-ligatures:normal;font-variant-caps:normal;font-variant-numeric:normal;font-variant-east-asian:normal"
   x="-8.9491529"
   y="-24.677965"
   id="text3"
   transform="matrix(16,0,0,16,-256,-256)"><tspan
     sodipodi:role="line"
     id="tspan3" /></text><path
   d="m -2.1879635,-48.831436 h 0.8398438 q 1.03515621,-1.855469 1.87499996,-2.617188 0.83984374,-0.78125 1.91406254,-0.78125 1.0742187,0 1.0742187,0.488282 0,0.234375 -0.8398437,1.269531 -0.8398438,1.035156 -1.2695313,1.738281 0.6640625,0.07813 1.171875,0.136719 0.5273438,0.05859 0.8203125,0.09766 -1.1132812,2.070313 -2.79296874,4.238281 -0.546875,-0.03906 -0.91796875,-0.05859 -0.37109375,-0.03906 -0.76171871,-0.05859 -0.3710938,-0.03906 -0.9179688,-0.07813 -1.0546875,1.699219 -1.7773437,3.046875 -0.703125,1.328125 -1.09375,2.441406 -0.3710938,1.113281 -0.3710938,2.109375 0,1.347656 1.0742188,1.347656 0.7421875,0 1.9335937,-0.78125 1.2109375,-0.800781 3.22265626,-2.441406 v 1.308594 q -5.27343746,5.722656 -7.79296876,5.722656 -0.8789062,0 -1.4257812,-0.683594 -0.5273438,-0.683593 -0.5273438,-1.757812 0,-0.722656 0.2929688,-1.71875 0.3125,-0.996094 1.09375,-3.007813 -0.2734375,0.234375 -0.5273438,0.46875 -0.234375,0.214844 -0.4492187,0.410157 -0.1953125,0.175781 -0.4296875,0.390625 -0.234375,0.195312 -0.46875,0.410156 v -1.347656 q 2.0507812,-1.71875 4.9609375,-6.035157 -0.2929688,-0.01953 -0.546875,-0.01953 -0.2539063,-0.01953 -0.6054688,-0.01953 -1.1523437,0 -1.71875,0.15625 -0.234375,0.05859 -0.4492187,0.136719 -0.1953125,0.05859 -0.2734375,0.05859 -0.078125,0 -0.078125,-0.117187 0,-0.644531 0.8007812,-1.933594 0.6445313,-1.09375 1.2109375,-1.621094 0.5859375,-0.527343 1.40625,-0.703125 0.8398438,-0.195312 2.34375,-0.195312 z"
   id="text4"
   style="font-size:40px;line-height:1.25;font-family:'Brush Script MT';-inkscape-font-specification:'Brush Script MT, Normal';fill:#0000ff"
   transform="matrix(16,0,0,16,58.576271,666.0339)"
   aria-label="t" /></svg>
